<svg xmlns="http://www.w3.org/2000/svg" width="12" height="9.375" viewBox="0 0 12 9.375">
  <path id="Path_95183" data-name="Path 95183" d="M0-6.562A.562.562,0,0,0,.563-6H9v1.125a.563.563,0,0,0,.96.4l1.875-1.875a.563.563,0,0,0,0-.8L9.96-9.023a.563.563,0,0,0-.96.4V-7.5H.563A.562.562,0,0,0,0-6.937ZM11.438-3H3V-4.125a.563.563,0,0,0-.96-.4L.165-2.648a.563.563,0,0,0,0,.8L2.04.023A.563.563,0,0,0,3-.375V-1.5h8.438A.562.562,0,0,0,12-2.062v-.375A.562.562,0,0,0,11.438-3Z" transform="translate(0 9.188)" fill="#1825aa"/>
</svg>
