<svg xmlns="http://www.w3.org/2000/svg" width="12" height="12" viewBox="0 0 12 12">
  <path id="Path_95186" data-name="Path 95186" d="M10.5-6V-8.689a.75.75,0,0,0-.22-.53L9.22-10.28a.75.75,0,0,0-.53-.22H2.25a.75.75,0,0,0-.75.75V-6A1.5,1.5,0,0,0,0-4.5v2.625A.375.375,0,0,0,.375-1.5H1.5V.75a.75.75,0,0,0,.75.75h7.5A.75.75,0,0,0,10.5.75V-1.5h1.125A.375.375,0,0,0,12-1.875V-4.5A1.5,1.5,0,0,0,10.5-6ZM9,0H3V-2.25H9ZM9-5.25H3V-9H7.5v1.125a.375.375,0,0,0,.375.375H9Zm1.125,1.688a.563.563,0,0,1-.562-.562.562.562,0,0,1,.563-.562.562.562,0,0,1,.563.563A.563.563,0,0,1,10.125-3.562Z" transform="translate(0 10.5)" fill="#1825aa"/>
</svg>
