<svg xmlns="http://www.w3.org/2000/svg" width="10.5" height="12" viewBox="0 0 10.5 12">
  <path id="Path_95184" data-name="Path 95184" d="M8.25-3a2.24,2.24,0,0,0-1.4.49l-2.4-1.5A2.267,2.267,0,0,0,4.5-4.5a2.241,2.241,0,0,0-.053-.487l2.4-1.5A2.24,2.24,0,0,0,8.25-6,2.25,2.25,0,0,0,10.5-8.25,2.25,2.25,0,0,0,8.25-10.5,2.25,2.25,0,0,0,6-8.25a2.256,2.256,0,0,0,.053.488l-2.4,1.5a2.24,2.24,0,0,0-1.4-.49A2.25,2.25,0,0,0,0-4.5,2.25,2.25,0,0,0,2.25-2.25a2.24,2.24,0,0,0,1.4-.49l2.4,1.5A2.261,2.261,0,0,0,6-.749H6A2.25,2.25,0,0,0,8.25,1.5,2.25,2.25,0,0,0,10.5-.75,2.25,2.25,0,0,0,8.25-3Z" transform="translate(0 10.5)" fill="#1825aa"/>
</svg>
