<svg xmlns="http://www.w3.org/2000/svg" width="18.392" height="14">
    <g data-name="Group 60151">
        <path data-name="Path 94959" d="M46.444 45.34h-8.235l-.074-.479A1.188 1.188 0 0 0 37 43.888h-3.961a1.188 1.188 0 0 0-1.134.973l-.074.479h-.281a.987.987 0 0 0-.984.984V56.9a.987.987 0 0 0 .984.984h14.894a.987.987 0 0 0 .984-.984V46.324a.987.987 0 0 0-.984-.984z" transform="translate(-29.037 -43.888)" style="fill:#1825aa"/>
        <path data-name="Rectangle 45293" transform="translate(2.125 2.197)" style="fill:#fff" d="M0 0h15.711v10.638H0z"/>
        <path data-name="Path 94960" d="M16.874 116.663a1.2 1.2 0 0 0-1.14-.972H.84a.814.814 0 0 0-.828.972l1.361 8.464a1.2 1.2 0 0 0 1.14.972h14.894a.814.814 0 0 0 .828-.972z" transform="translate(0 -112.099)" style="fill:#313fd2"/>
    </g>
</svg>
