<svg xmlns="http://www.w3.org/2000/svg" width="288" height="217" viewBox="0 0 288 217">
    <defs>
        <linearGradient id="pu7xr3zvjb" x1=".663" x2="-.386" y1="-.048" y2="2.87" gradientUnits="objectBoundingBox">
            <stop offset="0" stop-color="#fff" stop-opacity="0"/>
            <stop offset="1" stop-color="#fff" stop-opacity=".4"/>
        </linearGradient>
        <clipPath id="ma493fm74a">
            <path fill="#fff" d="M0 0H288V217H0z" transform="translate(0 863)"/>
        </clipPath>
    </defs>
    <g clip-path="url(#ma493fm74a)" transform="translate(0 -863)">
        <path fill="url(#pu7xr3zvjb)" d="M19687.307 22363.627a135.929 135.929 0 0 1-54.494-141.838l67.035 46.938 10.842 61.51 94.623-16.686 11.7-16.7-166.828-116.809q1.8-2.859 3.756-5.662t4.039-5.471l222.34 155.688q-1.8 2.859-3.756 5.662a135.86 135.86 0 0 1-189.254 33.369zm144.846-119.2l-3.334-18.928 70.461 49.338a134.285 134.285 0 0 1-3.217 14.34zm-98.217 37.8l-2.609-14.795-2.834.355-4.992 7.135-4.871-3.408 15.594-22.268 4.869 3.414-6.623 9.453 17.055-2.148 6.266 4.385-18.5 2.328 3.6 20.42zm-26.436-18.512l-1.8-24.068-10.719 15.307-4.869-3.412 15.588-22.264 4.875 3.408 1.8 24.074 10.717-15.307 4.871 3.412-15.588 22.264zm118.311-55.25l-3.33-18.928 78.424 54.918a135.9 135.9 0 0 1-.039 16.566zm-146.135 35.771l1.125-6.473-9.352-6.547-5.7 3.273-5.568-3.9 24.293-13.963 1.732-1 4.178 2.92-.344 1.973-4.807 27.605zm-3.346-15.818l5.432 3.807 1.346-7.705zm65.877-110.016a137.394 137.394 0 0 1 20.9-1.951l130.553 91.412a136.823 136.823 0 0 1 5.309 20.3zm-91.406 105.617l-15.65-10.959 15.588-22.264 14.262 9.982a8.066 8.066 0 0 1 1.979 11.24 7.541 7.541 0 0 0-4.943 10.021 8.068 8.068 0 0 1-11.234 1.979zm-7.861-11.725l9.74 6.816a2.974 2.974 0 0 0 3.412-4.871l-9.74-6.814zm6.338-9.047l8.344 5.848a2.972 2.972 0 0 0 3.408-4.869l-8.346-5.85zm16.666-43.687a132.54 132.54 0 0 1 9.938-9.629l56.869 39.82-18.924 3.334zm19.93-17.568a134.025 134.025 0 0 1 12.371-7.924l70.467 49.34-18.928 3.334zm100.951-23.865a136.2 136.2 0 0 1 97.143 68.02zm-76.141 9.723a134.42 134.42 0 0 1 15.555-5.7l78.428 54.918-18.928 3.336z" transform="translate(-19634.5 -21224.32)"/>
    </g>
</svg>
