<svg xmlns="http://www.w3.org/2000/svg" width="156.334" height="60" viewBox="0 0 156.334 60">
  <defs>
    <style>
      .cls-1 {
        fill: #fff;
      }

      .cls-2 {
        fill: #1825aa;
      }

      .cls-3 {
        fill: #eb0029;
      }
    </style>
  </defs>
  <g id="Group_22192" data-name="Group 22192" transform="translate(-47 -42)">
    <g id="Group_22191" data-name="Group 22191">
      <circle id="Ellipse_3511" data-name="Ellipse 3511" class="cls-1" cx="30" cy="30" r="30" transform="translate(47 42)"/>
      <g id="Group_22113" data-name="Group 22113" transform="translate(49 44)">
        <path id="Path_34428" data-name="Path 34428" class="cls-2" d="M73.611,43.988v5.428H74.8V47.677l.422-.383h0l2.121,2.121h1.7L76.11,46.487h0l2.759-2.5H77.342L74.8,46.293V43.988Z" transform="translate(-51.134 -12.732)"/>
        <path id="Path_34429" data-name="Path 34429" class="cls-2" d="M59.188,48.228l.557,1.188H61.1L58.727,44.35l-.17-.362H57.539l-.169.362-2.375,5.066h1.357l.557-1.188Zm-1.14-2.43.663,1.414H57.387Z" transform="translate(-47.534 -12.732)"/>
        <path id="Path_34430" data-name="Path 34430" class="cls-2" d="M50.5,43.988H47.019v5.428h3.816a1.611,1.611,0,0,0,1.611-1.61,1.475,1.475,0,0,0-.676-1.255,1.477,1.477,0,0,0,.336-.951A1.61,1.61,0,0,0,50.5,43.988Zm-2.29,1.018h2.035a.593.593,0,0,1,0,1.187H48.206ZM50.58,48.4H48.206V47.211H50.58a.593.593,0,0,1,0,1.187Z" transform="translate(-45.662 -12.732)"/>
        <path id="Path_34431" data-name="Path 34431" class="cls-2" d="M68.765,49.416h1.188V43.988H68.765V47.72l-3.052-3.732H64.525v5.428h1.188V45.685Z" transform="translate(-49.248 -12.732)"/>
        <path id="Path_34432" data-name="Path 34432" class="cls-3" d="M59.981,31.491H46.117a26.874,26.874,0,0,0-.523,2.713H57.267Z" transform="translate(-45.328 -10.176)"/>
        <path id="Path_34433" data-name="Path 34433" class="cls-3" d="M92.341,11.281H59.075a28.247,28.247,0,0,0-3.339,2.713H95.679A28.174,28.174,0,0,0,92.341,11.281Z" transform="translate(-47.708 -6.125)"/>
        <path id="Path_34434" data-name="Path 34434" class="cls-3" d="M101.21,38.227H45.281q-.034.674-.035,1.357c0,.455.012.908.035,1.356H87.245v4.071l-14,13.567-9.1-8.819H47.283A28.016,28.016,0,0,0,73.246,66.719c15.464,0,28-12.149,28-27.135Q101.245,38.9,101.21,38.227Z" transform="translate(-45.246 -10.719)"/>
        <path id="Path_34435" data-name="Path 34435" class="cls-3" d="M77.071,4.544a27.038,27.038,0,0,0-11.84,2.713h23.68A27.033,27.033,0,0,0,77.071,4.544Z" transform="translate(-49.071 -4.544)"/>
        <path id="Path_34436" data-name="Path 34436" class="cls-3" d="M92.989,27.467h15.58a27,27,0,0,0-1.117-2.714H90.275Z" transform="translate(-54.084 -8.768)"/>
        <path id="Path_34437" data-name="Path 34437" class="cls-3" d="M86.252,20.731h18.3a27.024,27.024,0,0,0-1.892-2.714H83.539Z" transform="translate(-52.503 -7.36)"/>
        <path id="Path_34438" data-name="Path 34438" class="cls-3" d="M71.422,18.017H52.3a27.028,27.028,0,0,0-1.892,2.714h18.3Z" transform="translate(-46.458 -7.36)"/>
        <path id="Path_34439" data-name="Path 34439" class="cls-3" d="M65.519,24.753H48.342a26.824,26.824,0,0,0-1.117,2.714h15.58Z" transform="translate(-45.71 -8.768)"/>
      </g>
    </g>
    <g id="Group_22116" data-name="Group 22116" transform="translate(115.146 48.184)">
      <g id="Group_22114" data-name="Group 22114">
        <path id="Path_34440" data-name="Path 34440" class="cls-1" d="M179.445,36.581a10.854,10.854,0,1,1,8.35-17.787,44.041,44.041,0,0,1,5.692-3.736,17.636,17.636,0,1,0,0,21.337,44.155,44.155,0,0,1-5.692-3.739A10.828,10.828,0,0,1,179.445,36.581Z" transform="translate(-133.657 -8.089)"/>
        <path id="Path_34441" data-name="Path 34441" class="cls-1" d="M228.173,24.555a9.327,9.327,0,0,0-6.922-15.579h-15a10.156,10.156,0,0,1,.582,3.392V42.894H222.1a10.176,10.176,0,0,0,6.073-18.34ZM213.62,15.42h6.444a3.392,3.392,0,0,1,0,6.784H213.62Zm7.462,21.03H213.62V28.309h7.462a4.07,4.07,0,0,1,0,8.141Z" transform="translate(-144.089 -8.297)"/>
        <path id="Path_34442" data-name="Path 34442" class="cls-1" d="M142.744,23.591c-1.632-.474-4.93-1.16-7.4-1.8-1.375-.354-3.24-1.326-3.24-3.361,0-1.479,1.527-4.07,6.106-3.985,3.725.069,5.761,2.454,5.935,4.489a43.718,43.718,0,0,1,6.52-2.136c-1.456-4.932-5.913-8.712-12.454-8.712a14.475,14.475,0,0,0-8.47,2.408,9.787,9.787,0,0,0-4.419,7.913c0,4.772,3.259,7.049,5.1,8.134,2.169,1.277,6.856,2.249,8.445,2.647,2.661.667,4.408.978,5.277,1.791a2.511,2.511,0,0,1,.847,2.035c0,2.1-2.266,4.013-6.275,4.013-5.037,0-6.822-2.408-7.085-4.459a43.8,43.8,0,0,1-6.61,2.135,11.77,11.77,0,0,0,4.537,6.113,15.389,15.389,0,0,0,9.158,2.543c7.671,0,13.058-4.748,13.058-10.684C151.775,25.895,144.992,24.243,142.744,23.591Z" transform="translate(-125.024 -8.089)"/>
      </g>
      <g id="Group_22115" data-name="Group 22115" transform="translate(0 39.517)">
        <path id="Path_34443" data-name="Path 34443" class="cls-1" d="M144.173,60.4l.678.51h1.187l-1.357-1.188h-1.017l-1.357,1.188h1.186Z" transform="translate(-129.079 -59.722)"/>
        <path id="Path_34444" data-name="Path 34444" class="cls-1" d="M228.564,60.91l-1.188-1.188h-1.527l1.527,1.188Z" transform="translate(-148.686 -59.722)"/>
        <path id="Path_34445" data-name="Path 34445" class="cls-1" d="M206.625,60.91l-1.186-1.188h-1.527l1.527,1.188Z" transform="translate(-143.537 -59.722)"/>
        <path id="Path_34446" data-name="Path 34446" class="cls-1" d="M172.5,60.91l-1.188-1.188h-1.526l1.526,1.188Z" transform="translate(-135.528 -59.722)"/>
        <path id="Path_34447" data-name="Path 34447" class="cls-1" d="M142.939,62.159l-2.272,6.784h1.492l.525-1.7h2.206l.525,1.7h1.492l-2.273-6.784Zm.113,3.9.735-2.375.735,2.375Z" transform="translate(-128.694 -60.294)"/>
        <path id="Path_34448" data-name="Path 34448" class="cls-1" d="M170.418,62.159l-2.273,6.784h1.492l.526-1.7h2.206l.526,1.7h1.492l-2.273-6.784Zm.112,3.9.735-2.375L172,66.061Z" transform="translate(-135.143 -60.294)"/>
        <path id="Path_34449" data-name="Path 34449" class="cls-1" d="M204.544,62.159l-2.272,6.784h1.492l.525-1.7h2.206l.526,1.7h1.493l-2.274-6.784Zm.113,3.9.735-2.375.736,2.375Z" transform="translate(-143.152 -60.294)"/>
        <path id="Path_34450" data-name="Path 34450" class="cls-1" d="M129.092,66.4l-2.883-4.241h-1.187v6.784h1.357V64.7l2.883,4.241h1.187V62.159h-1.357Z" transform="translate(-125.022 -60.294)"/>
        <path id="Path_34451" data-name="Path 34451" class="cls-1" d="M153.469,66.4l-2.883-4.241H149.4v6.784h1.356V64.7l2.884,4.241h1.187V62.159h-1.356Z" transform="translate(-130.743 -60.294)"/>
        <path id="Path_34452" data-name="Path 34452" class="cls-1" d="M180.944,66.4l-2.884-4.241h-1.186v6.784h1.356V64.7l2.884,4.241H182.3V62.159h-1.356Z" transform="translate(-137.191 -60.294)"/>
        <path id="Path_34453" data-name="Path 34453" class="cls-1" d="M237.233,62.159V66.4l-2.883-4.241h-1.188v6.784h1.358V64.7l2.883,4.241h1.187V62.159Z" transform="translate(-150.402 -60.294)"/>
        <path id="Path_34454" data-name="Path 34454" class="cls-1" d="M136.1,63.272c.848,0,1.187.373,1.29,1.035h1.424a2.449,2.449,0,0,0-2.714-2.325c-2.035,0-2.883,1.324-2.883,3.189v.679c0,1.866.848,3.189,2.883,3.189a2.437,2.437,0,0,0,2.714-2.473V65.172H136.1v1.186h1.357V66.6c0,.679-.474,1.154-1.357,1.154-1.017,0-1.43-.713-1.43-1.9v-.679C134.674,63.814,135.155,63.272,136.1,63.272Z" transform="translate(-126.946 -60.252)"/>
        <path id="Path_34455" data-name="Path 34455" class="cls-1" d="M187.959,63.272c.847,0,1.187.373,1.289,1.035h1.424a2.449,2.449,0,0,0-2.713-2.325c-2.036,0-2.884,1.324-2.884,3.189v.679c0,1.866.847,3.189,2.884,3.189a2.437,2.437,0,0,0,2.713-2.473V65.172h-2.713v1.186h1.355V66.6c0,.679-.474,1.154-1.355,1.154-1.018,0-1.431-.713-1.431-1.9v-.679C186.528,63.814,187.009,63.272,187.959,63.272Z" transform="translate(-139.116 -60.252)"/>
        <path id="Path_34456" data-name="Path 34456" class="cls-1" d="M218.983,63.272c.847,0,1.187.373,1.289,1.035H221.7a2.448,2.448,0,0,0-2.713-2.325c-2.034,0-2.884,1.324-2.884,3.189v.679c0,1.866.849,3.189,2.884,3.189a2.437,2.437,0,0,0,2.713-2.473V65.172h-2.713v1.186h1.357V66.6c0,.679-.475,1.154-1.357,1.154-1.018,0-1.43-.713-1.43-1.9v-.679C217.552,63.814,218.032,63.272,218.983,63.272Z" transform="translate(-146.397 -60.252)"/>
        <path id="Path_34457" data-name="Path 34457" class="cls-1" d="M164.548,64.874h-2.714V62.159h-1.356v6.784h1.356V66.061h2.714v2.883H165.9V62.159h-1.357Z" transform="translate(-133.343 -60.294)"/>
        <path id="Path_34458" data-name="Path 34458" class="cls-1" d="M198.744,64.947l-1.02-.227c-.611-.126-.95-.364-.95-.771,0-.543.475-.814,1.188-.814.78,0,1.154.373,1.154.849h1.355c0-1.189-.983-2-2.548-2-1.487,0-2.573.679-2.573,2.036a1.932,1.932,0,0,0,1.753,1.926l1.028.236c.686.155,1.018.351,1.018.84,0,.527-.44.867-1.289.867s-1.289-.339-1.289-.848h-1.391c0,.916.644,2,2.679,2,1.7,0,2.714-.814,2.714-2.172C200.574,65.646,199.76,65.17,198.744,64.947Z" transform="translate(-141.488 -60.252)"/>
        <rect id="Rectangle_22858" data-name="Rectangle 22858" class="cls-1" width="1.357" height="6.784" transform="translate(65.801 1.865)"/>
        <path id="Path_34459" data-name="Path 34459" class="cls-1" d="M227.4,61.981c-1.866,0-2.884,1.154-2.884,3.189v.679c0,2.035,1.017,3.189,2.876,3.189s2.89-1.154,2.89-3.189V65.17C230.286,63.135,229.268,61.981,227.4,61.981Zm1.459,3.868c0,1.356-.61,1.9-1.461,1.9s-1.456-.543-1.456-1.9V65.17c0-1.356.611-1.9,1.459-1.9s1.459.543,1.459,1.9v.679Z" transform="translate(-148.374 -60.252)"/>
      </g>
    </g>
  </g>
</svg>
