<svg xmlns="http://www.w3.org/2000/svg" width="15.75" height="15.75" viewBox="0 0 15.75 15.75">
  <path id="Path_95187" data-name="Path 95187" d="M10.5-15.75a7.748,7.748,0,0,0-3.773.964,7.777,7.777,0,0,0-2.789,2.543v-2.194H2.625v4.594H7.219v-1.312H4.84a6.5,6.5,0,0,1,2.338-2.379,6.453,6.453,0,0,1,3.322-.9,6.453,6.453,0,0,1,3.322.9A6.391,6.391,0,0,1,16.16-11.2a6.453,6.453,0,0,1,.9,3.322,6.453,6.453,0,0,1-.9,3.322,6.391,6.391,0,0,1-2.338,2.338,6.453,6.453,0,0,1-3.322.9,6.453,6.453,0,0,1-3.322-.9A6.391,6.391,0,0,1,4.84-4.553a6.453,6.453,0,0,1-.9-3.322H2.625A7.706,7.706,0,0,0,3.712-3.9a7.643,7.643,0,0,0,2.81,2.83A7.819,7.819,0,0,0,10.5,0a7.819,7.819,0,0,0,3.979-1.066,7.8,7.8,0,0,0,2.83-2.83,7.819,7.819,0,0,0,1.066-3.979,7.819,7.819,0,0,0-1.066-3.979,7.643,7.643,0,0,0-2.83-2.81A7.706,7.706,0,0,0,10.5-15.75Zm-.656,2.625v5.906h4.594V-8.531H11.156v-4.594Z" transform="translate(-2.625 15.75)" fill="#707070"/>
</svg>
